<?xml version="1.0" encoding="UTF-8" standalone="no"?>
<!DOCTYPE svg PUBLIC "-//W3C//DTD SVG 1.1//EN"
 "http://www.w3.org/Graphics/SVG/1.1/DTD/svg11.dtd">
<!-- Generated by graphviz version 2.40.1 (20161225.0304)
 -->
<!-- Title: %3 Pages: 1 -->
<svg width="328pt" height="341pt"
 viewBox="0.00 0.00 327.72 340.91" xmlns="http://www.w3.org/2000/svg" xmlns:xlink="http://www.w3.org/1999/xlink">
<g id="graph0" class="graph" transform="scale(1 1) rotate(0) translate(4 336.9066)">
<title>%3</title>
<polygon fill="#ffffff" stroke="transparent" points="-4,4 -4,-336.9066 323.7193,-336.9066 323.7193,4 -4,4"/>
<g id="clust1" class="cluster">
<title>cluster6</title>
<path fill="none" stroke="#000000" d="M20,-210.9533C20,-210.9533 96,-210.9533 96,-210.9533 102,-210.9533 108,-216.9533 108,-222.9533 108,-222.9533 108,-312.9066 108,-312.9066 108,-318.9066 102,-324.9066 96,-324.9066 96,-324.9066 20,-324.9066 20,-324.9066 14,-324.9066 8,-318.9066 8,-312.9066 8,-312.9066 8,-222.9533 8,-222.9533 8,-216.9533 14,-210.9533 20,-210.9533"/>
<text text-anchor="middle" x="96.5" y="-218.7533" font-family="Times,serif" font-size="14.00" fill="#000000">6</text>
</g>
<g id="clust2" class="cluster">
<title>cluster60</title>
<path fill="none" stroke="#000000" d="M128,-8C128,-8 216,-8 216,-8 222,-8 228,-14 228,-20 228,-20 228,-301.93 228,-301.93 228,-307.93 222,-313.93 216,-313.93 216,-313.93 128,-313.93 128,-313.93 122,-313.93 116,-307.93 116,-301.93 116,-301.93 116,-20 116,-20 116,-14 122,-8 128,-8"/>
<text text-anchor="middle" x="213" y="-15.8" font-family="Times,serif" font-size="14.00" fill="#000000">60</text>
</g>
<!-- beta -->
<g id="node1" class="node">
<title>beta</title>
<ellipse fill="none" stroke="#000000" cx="58" cy="-279.43" rx="41.9398" ry="37.4533"/>
<text text-anchor="middle" x="58" y="-290.73" font-family="Times,serif" font-size="14.00" fill="#000000">beta</text>
<text text-anchor="middle" x="58" y="-275.73" font-family="Times,serif" font-size="14.00" fill="#000000">~</text>
<text text-anchor="middle" x="58" y="-260.73" font-family="Times,serif" font-size="14.00" fill="#000000">Normal</text>
</g>
<!-- p -->
<g id="node3" class="node">
<title>p</title>
<polygon fill="none" stroke="#000000" points="217.5,-202.9533 126.5,-202.9533 126.5,-149.9533 217.5,-149.9533 217.5,-202.9533"/>
<text text-anchor="middle" x="172" y="-187.7533" font-family="Times,serif" font-size="14.00" fill="#000000">p</text>
<text text-anchor="middle" x="172" y="-172.7533" font-family="Times,serif" font-size="14.00" fill="#000000">~</text>
<text text-anchor="middle" x="172" y="-157.7533" font-family="Times,serif" font-size="14.00" fill="#000000">Deterministic</text>
</g>
<!-- beta&#45;&gt;p -->
<g id="edge1" class="edge">
<title>beta&#45;&gt;p</title>
<path fill="none" stroke="#000000" d="M79.6423,-246.909C88.7236,-234.732 99.9696,-221.345 112,-210.9533 113.9494,-209.2695 115.993,-207.6257 118.1014,-206.0272"/>
<polygon fill="#000000" stroke="#000000" points="120.3468,-208.7262 126.4928,-200.0961 116.3065,-203.0099 120.3468,-208.7262"/>
</g>
<!-- round -->
<g id="node2" class="node">
<title>round</title>
<ellipse fill="none" stroke="#000000" cx="278" cy="-279.43" rx="41.9398" ry="37.4533"/>
<text text-anchor="middle" x="278" y="-290.73" font-family="Times,serif" font-size="14.00" fill="#000000">round</text>
<text text-anchor="middle" x="278" y="-275.73" font-family="Times,serif" font-size="14.00" fill="#000000">~</text>
<text text-anchor="middle" x="278" y="-260.73" font-family="Times,serif" font-size="14.00" fill="#000000">Normal</text>
</g>
<!-- round&#45;&gt;p -->
<g id="edge3" class="edge">
<title>round&#45;&gt;p</title>
<path fill="none" stroke="#000000" d="M259.6864,-245.7197C252.1557,-233.8113 242.6831,-220.9167 232,-210.9533 230.1162,-209.1964 228.1272,-207.4919 226.0637,-205.8432"/>
<polygon fill="#000000" stroke="#000000" points="227.9313,-202.8721 217.8012,-199.7686 223.7849,-208.5119 227.9313,-202.8721"/>
</g>
<!-- bots -->
<g id="node5" class="node">
<title>bots</title>
<ellipse fill="#d3d3d3" stroke="#000000" cx="172" cy="-76.4767" rx="48.1667" ry="37.4533"/>
<text text-anchor="middle" x="172" y="-87.7767" font-family="Times,serif" font-size="14.00" fill="#000000">bots</text>
<text text-anchor="middle" x="172" y="-72.7767" font-family="Times,serif" font-size="14.00" fill="#000000">~</text>
<text text-anchor="middle" x="172" y="-57.7767" font-family="Times,serif" font-size="14.00" fill="#000000">Binomial</text>
</g>
<!-- p&#45;&gt;bots -->
<g id="edge4" class="edge">
<title>p&#45;&gt;bots</title>
<path fill="none" stroke="#000000" d="M172,-149.9239C172,-142.0239 172,-133.113 172,-124.2925"/>
<polygon fill="#000000" stroke="#000000" points="175.5001,-124.0454 172,-114.0454 168.5001,-124.0455 175.5001,-124.0454"/>
</g>
<!-- treat_id -->
<g id="node4" class="node">
<title>treat_id</title>
<path fill="#d3d3d3" stroke="#000000" d="M205,-305.93C205,-305.93 139,-305.93 139,-305.93 133,-305.93 127,-299.93 127,-293.93 127,-293.93 127,-264.93 127,-264.93 127,-258.93 133,-252.93 139,-252.93 139,-252.93 205,-252.93 205,-252.93 211,-252.93 217,-258.93 217,-264.93 217,-264.93 217,-293.93 217,-293.93 217,-299.93 211,-305.93 205,-305.93"/>
<text text-anchor="middle" x="172" y="-290.73" font-family="Times,serif" font-size="14.00" fill="#000000">treat_id</text>
<text text-anchor="middle" x="172" y="-275.73" font-family="Times,serif" font-size="14.00" fill="#000000">~</text>
<text text-anchor="middle" x="172" y="-260.73" font-family="Times,serif" font-size="14.00" fill="#000000">ConstantData</text>
</g>
<!-- treat_id&#45;&gt;p -->
<g id="edge2" class="edge">
<title>treat_id&#45;&gt;p</title>
<path fill="none" stroke="#000000" d="M172,-252.9109C172,-240.8733 172,-226.4331 172,-213.3598"/>
<polygon fill="#000000" stroke="#000000" points="175.5001,-213.2404 172,-203.2404 168.5001,-213.2404 175.5001,-213.2404"/>
</g>
</g>
</svg>
