<?xml version="1.0" encoding="UTF-8" standalone="no"?>
<!DOCTYPE svg PUBLIC "-//W3C//DTD SVG 1.1//EN"
 "http://www.w3.org/Graphics/SVG/1.1/DTD/svg11.dtd">
<!-- Generated by graphviz version 2.40.1 (20161225.0304)
 -->
<!-- Title: %3 Pages: 1 -->
<svg width="277pt" height="116pt"
 viewBox="0.00 0.00 276.74 116.00" xmlns="http://www.w3.org/2000/svg" xmlns:xlink="http://www.w3.org/1999/xlink">
<g id="graph0" class="graph" transform="scale(1 1) rotate(0) translate(4 112)">
<title>%3</title>
<polygon fill="#ffffff" stroke="transparent" points="-4,4 -4,-112 272.7434,-112 272.7434,4 -4,4"/>
<!-- w -->
<g id="node1" class="node">
<title>w</title>
<ellipse fill="none" stroke="#000000" cx="40.2964" cy="-90" rx="40.0939" ry="18"/>
<text text-anchor="middle" x="40.2964" y="-86.3" font-family="Times,serif" font-size="14.00" fill="#000000">Weapon</text>
</g>
<!-- b -->
<g id="node4" class="node">
<title>b</title>
<ellipse fill="none" stroke="#000000" cx="140.2964" cy="-18" rx="59.2899" ry="18"/>
<text text-anchor="middle" x="140.2964" y="-14.3" font-family="Times,serif" font-size="14.00" fill="#000000">Downed Bots</text>
</g>
<!-- w&#45;&gt;b -->
<g id="edge1" class="edge">
<title>w&#45;&gt;b</title>
<path fill="none" stroke="#000000" d="M61.9949,-74.3771C75.7597,-64.4664 93.7914,-51.4836 109.0809,-40.4752"/>
<polygon fill="#000000" stroke="#000000" points="111.1782,-43.278 117.2485,-34.5945 107.088,-37.5972 111.1782,-43.278"/>
</g>
<!-- d -->
<g id="node2" class="node">
<title>d</title>
<ellipse fill="none" stroke="#000000" cx="140.2964" cy="-90" rx="41.6928" ry="18"/>
<text text-anchor="middle" x="140.2964" y="-86.3" font-family="Times,serif" font-size="14.00" fill="#000000">Distance</text>
</g>
<!-- d&#45;&gt;b -->
<g id="edge2" class="edge">
<title>d&#45;&gt;b</title>
<path fill="none" stroke="#000000" d="M140.2964,-71.8314C140.2964,-64.131 140.2964,-54.9743 140.2964,-46.4166"/>
<polygon fill="#000000" stroke="#000000" points="143.7965,-46.4132 140.2964,-36.4133 136.7965,-46.4133 143.7965,-46.4132"/>
</g>
<!-- r -->
<g id="node3" class="node">
<title>r</title>
<ellipse fill="none" stroke="#000000" cx="234.2964" cy="-90" rx="34.394" ry="18"/>
<text text-anchor="middle" x="234.2964" y="-86.3" font-family="Times,serif" font-size="14.00" fill="#000000">Round</text>
</g>
<!-- r&#45;&gt;b -->
<g id="edge3" class="edge">
<title>r&#45;&gt;b</title>
<path fill="none" stroke="#000000" d="M214.8196,-75.0816C202.0529,-65.3028 185.1029,-52.3199 170.594,-41.2066"/>
<polygon fill="#000000" stroke="#000000" points="172.4506,-38.22 162.3835,-34.9178 168.194,-43.7771 172.4506,-38.22"/>
</g>
</g>
</svg>
